<?xml version="1.0" encoding="UTF-8" standalone="no"?><!DOCTYPE svg PUBLIC "-//W3C//DTD SVG 1.1//EN" "http://www.w3.org/Graphics/SVG/1.1/DTD/svg11.dtd"><svg width="100%" height="100%" viewBox="0 0 2000 1500" version="1.1" xmlns="http://www.w3.org/2000/svg" xmlns:xlink="http://www.w3.org/1999/xlink" xml:space="preserve" xmlns:serif="http://www.serif.com/" style="fill-rule:evenodd;clip-rule:evenodd;stroke-linecap:round;stroke-miterlimit:1.5;"><rect id="Artboard3" x="0" y="-0" width="2000" height="1500" style="fill:none;"/><g id="tllo"><path d="M778.275,1065.96c1.639,35.161 30.699,63.2 66.256,63.2c14.563,0 28.036,-4.703 38.98,-12.671c14.66,22.824 33.459,28.041 58.395,30.598c6.172,0.633 35.41,-0.128 41.569,-0.802c34.368,-3.758 55.656,-15.953 66.246,-29.343c9.747,-12.324 15.625,-25.852 17.84,-39.345c7.24,7.449 16.054,12.345 26.042,14.78c4.713,1.149 11.87,2.284 28.107,2.445c0.072,0 0.143,0.001 0.215,0.001l42.792,0.213c7.227,0.072 15.369,-1.991 23.131,-5.972c12.02,10.074 27.506,16.141 44.398,16.141c7.79,0 15.28,-1.29 22.268,-3.667c7.547,10.741 19.31,20.814 37.171,27.881c20.744,8.208 54.233,13.129 103.901,6.628c53.584,-7.013 87.4,-27.096 106.605,-47.688c3.554,15.438 8.563,29.858 13.489,40.698c7.67,16.883 17.114,27.255 21.548,30.701c12.839,9.979 25.256,10.503 34.188,9.224c2.68,-0.384 5.308,-0.966 7.863,-1.777l-0,0.001c13.222,-2.528 39.023,-6.711 61.41,-16.73c25.605,-11.458 46.548,-29.993 55.801,-55.358c1.882,-5.159 3.1,-10.323 3.735,-15.435c8.746,4.23 18.557,6.602 28.917,6.602c34.603,-0 63.075,-26.461 66.267,-60.238c3.298,1.383 6.805,2.376 10.462,2.922c16.533,2.468 32.809,-4.693 42.229,-18.046c16.342,-0.063 31.541,-9.293 38.997,-24.254c3.24,-6.501 4.736,-13.518 4.588,-20.449l-0.076,-52.962c-0,0 -6.255,3.234 -12.268,-7.332c13.288,-12.414 21.769,-30.282 21.769,-50.533c0,-22.088 -0.172,-59.039 -0.172,-59.039c-11.52,-9.294 -51.339,-9.507 -66.809,-9.507c-16.288,-0 -31.491,6.074 -43.281,16.276c-0.138,-0.53 -0.279,-1.061 -0.424,-1.592c3.952,-2.823 7.965,-6.658 11.901,-11.836c7.476,-9.836 25.069,-36.402 29.128,-95.846c0.112,-1.626 0.112,-3.525 -0.038,-5.609l0.023,-52.505c-6.926,-10.638 -25.827,10.762 -40.101,8.816c-9.124,-1.243 -32.615,-3.105 -58.731,8.064c0.255,-2.417 0.387,-4.876 0.387,-7.369c-0,-38.068 -30.553,-68.025 -66.982,-68.025c-5.512,-0 -10.889,0.686 -16.048,1.982c-2.386,-6.711 -5.916,-13.318 -10.66,-19.625c-7.164,-9.524 -13.431,-14.34 -25.855,-22.505c-12.24,-8.043 -25.615,-14.948 -39.914,-18.281c-9.353,-2.18 -18.266,-3.361 -27.867,-2.169c-3.828,0.475 -9.182,1.639 -12.259,2.723c-5.465,1.926 -10.703,4.568 -15.586,7.672c-7.81,4.963 -14.671,11.999 -20.109,20.147c-12.295,-12.2 -29.314,-19.816 -48.301,-19.816c-8.133,-0 -15.904,1.397 -23.103,3.955c-0.429,-7.415 -2.746,-14.766 -6.989,-21.3c-9.609,-14.797 -27.064,-22.273 -44.198,-19.293c-10.739,-13.679 -28.713,-19.804 -45.755,-15.237c-7.229,1.937 -13.642,5.624 -18.819,10.543c-1.081,-0.383 -2.186,-0.727 -3.311,-1.028l-14.83,-3.974c0,0 -0.803,-15.331 -0.803,-15.331c-0.993,-18.941 -14.069,-35.089 -32.39,-39.998c-18.32,-4.909 -37.718,2.537 -48.049,18.444l-8.361,12.876c-0,-0 -14.83,-3.974 -14.83,-3.974c-18.32,-4.909 -37.718,2.538 -48.049,18.445c-4.4,6.776 -9.939,18.356 -9.306,29.653c0.271,4.834 1.074,9.221 1.074,9.221c-4.491,-0.007 -2.429,-3.221 -14.033,-13.144c-6.141,-5.251 -16.03,-12.745 -35.466,-10.643c-17.327,1.875 -45.917,2.322 -70.208,26.12c0.125,-2.177 0.18,-4.327 0.158,-6.442c-0.3,-29.105 -16.453,-56.861 -40.048,-69.412c-17.562,-9.342 -39.835,-12.397 -65.33,-0.206c-7.824,3.741 -14.704,9.264 -20.432,15.909c-7.662,0.005 -15.962,1.337 -24.842,4.55c-23.731,8.585 -47.202,36.137 -46.953,68.762c-6.081,-11.609 -15.249,-20.952 -26.513,-27.017c-2.275,-5.257 -5.587,-10.081 -9.821,-14.155c-9.869,-9.496 -23.612,-13.827 -37.141,-11.704c-34.135,5.354 -67.508,25.419 -94.618,49.062c-6.242,-52.547 -5.218,-100.603 -5.218,-100.603c0.222,-13.576 -5.867,-26.487 -16.484,-34.951c-10.617,-8.464 -24.56,-11.523 -37.745,-8.28c-17.931,4.409 -37.767,16.518 -55.735,32.984c-9.581,8.78 -18.74,18.738 -26.862,28.368c-21.617,-20.865 -48.57,-45.677 -68.231,-59.719c-19.401,-13.856 -37.038,-18.668 -46.501,-18.631c-12.114,0.047 -23.668,5.112 -31.911,13.989c-7.64,8.228 -18.34,31.018 -25.501,60.498c-5.063,20.845 -9.681,45.691 -13.273,67.046c-62.89,-12.987 -91.953,-2.222 -91.953,-2.222c-13.926,4.208 -26.639,-28.275 -30.943,-14.379l-0.174,56.58c0.066,9.742 3.384,19.325 9.644,27.12c22.132,27.562 41.647,61.582 56.559,91.03c-60.037,-0.444 -93.209,14.336 -93.209,14.336c-12.432,5.161 -23.134,-29.501 -26.735,-16.531l-0.259,56.534c-0.093,9.403 2.847,18.699 8.551,26.428l45.942,62.259c-43.949,6.928 -66.455,13.9 -66.455,13.9c-12.564,3.814 -25.554,-26.564 -30.559,-14.425l-0.499,55.632c-0.116,7.389 1.639,14.779 5.228,21.443c6.677,12.4 21.456,29.584 39.831,46.737c16.717,15.605 36.41,31.79 52.322,44.366c-21.565,48.815 -43.805,74.004 -43.805,74.004l-0.343,56.377c0.531,17.508 11.608,33.622 28.94,39.862c5.443,1.959 18.581,4.226 36.345,4.365c23.011,0.181 58.226,-1.614 86.479,-3.36c2.575,28.193 6.838,50.279 6.838,50.279c2.612,13.435 11.357,24.875 23.635,30.921c12.279,6.046 26.679,6.002 38.92,-0.119c63.349,-31.674 121.387,-64.815 163.508,-89.986c0.862,26.122 2.638,51.33 5.2,75.75c1.54,14.675 10.368,27.587 23.484,34.347c13.116,6.76 28.755,6.459 41.601,-0.802c-0,0 43.22,-23.971 124.704,-44.576c12.739,-3.222 23.357,-11.994 28.924,-23.896c2.827,-6.044 4.2,-12.57 4.121,-19.081l-0.102,-55.379c-10.603,-22.058 -26.372,-6.417 -38.969,-26.882c16.617,-1.921 34.584,-4.353 52.519,-7.404Z" style="fill:#ffb0d3;"/><path d="M778.275,1010.94c1.639,35.16 30.699,63.2 66.256,63.2c14.563,-0 28.036,-4.703 38.98,-12.672c14.66,22.824 33.459,28.041 58.395,30.599c6.172,0.633 35.41,-0.129 41.569,-0.802c34.368,-3.758 55.656,-15.954 66.246,-29.344c9.747,-12.324 15.625,-25.851 17.84,-39.344c7.24,7.448 16.054,12.345 26.042,14.779c4.713,1.15 11.87,2.285 28.107,2.445c0.072,0.001 0.143,0.001 0.215,0.002l42.792,0.212c7.227,0.072 15.369,-1.991 23.131,-5.972c12.02,10.075 27.506,16.142 44.398,16.142c7.79,-0 15.28,-1.29 22.268,-3.668c7.547,10.742 19.31,20.814 37.171,27.881c20.744,8.208 54.233,13.129 103.901,6.629c53.584,-7.013 87.4,-27.097 106.605,-47.688c3.554,15.437 8.563,29.857 13.489,40.698c7.67,16.882 17.114,27.254 21.548,30.7c12.839,9.98 25.256,10.503 34.188,9.224c2.68,-0.383 5.308,-0.965 7.863,-1.776l-0,0c13.222,-2.528 39.023,-6.711 61.41,-16.729c25.605,-11.459 46.548,-29.994 55.801,-55.358c1.882,-5.159 3.1,-10.323 3.735,-15.435c8.746,4.229 18.557,6.601 28.917,6.601c34.603,0 63.075,-26.461 66.267,-60.238c3.298,1.383 6.805,2.376 10.462,2.922c16.533,2.468 32.809,-4.693 42.229,-18.046c16.342,-0.063 31.541,-9.293 38.997,-24.253c7.456,-14.961 5.675,-32.653 -4.113,-45.739c3.759,-11.724 2.37,-24.439 -3.643,-35.004c13.288,-12.415 21.769,-30.283 21.769,-50.534c0,-38.602 -30.818,-68.546 -66.981,-68.546c-16.288,0 -31.491,6.075 -43.281,16.277c-0.138,-0.53 -0.279,-1.062 -0.424,-1.593c3.952,-2.823 7.965,-6.658 11.901,-11.836c7.476,-9.836 25.069,-36.402 29.128,-95.845c0.469,-6.863 -1.028,-18.57 -7.536,-28.566c-6.926,-10.638 -18.306,-18.787 -32.58,-20.732c-9.124,-1.244 -32.615,-3.106 -58.731,8.063c0.255,-2.417 0.387,-4.876 0.387,-7.369c-0,-38.067 -30.553,-68.025 -66.982,-68.025c-5.512,0 -10.889,0.686 -16.048,1.983c-2.386,-6.712 -5.916,-13.319 -10.66,-19.625c-7.164,-9.525 -13.431,-14.341 -25.855,-22.505c-12.24,-8.044 -25.615,-14.948 -39.914,-18.281c-9.353,-2.18 -18.266,-3.362 -27.867,-2.17c-3.828,0.475 -9.182,1.64 -12.259,2.724c-5.465,1.925 -10.703,4.567 -15.586,7.671c-7.81,4.964 -14.671,12 -20.109,20.148c-12.295,-12.2 -29.314,-19.817 -48.301,-19.817c-8.133,0 -15.904,1.397 -23.103,3.955c-0.429,-7.414 -2.746,-14.766 -6.989,-21.3c-9.609,-14.797 -27.064,-22.273 -44.198,-19.293c-10.739,-13.679 -28.713,-19.803 -45.755,-15.237c-7.229,1.937 -13.642,5.624 -18.819,10.544c-1.081,-0.384 -2.186,-0.728 -3.311,-1.029l-14.83,-3.974c0,0 -0.803,-15.331 -0.803,-15.331c-0.993,-18.941 -14.069,-35.089 -32.39,-39.998c-18.32,-4.909 -37.718,2.537 -48.049,18.444l-8.361,12.876c-0,0 -14.83,-3.973 -14.83,-3.973c-18.32,-4.909 -37.718,2.537 -48.049,18.444c-4.4,6.776 -9.939,18.356 -9.306,29.653c0.271,4.834 1.074,9.222 1.074,9.222c-4.491,-0.008 -2.429,-3.222 -14.033,-13.145c-6.141,-5.251 -16.03,-12.744 -35.466,-10.642c-17.327,1.874 -45.917,2.322 -70.208,26.12c0.125,-2.178 0.18,-4.328 0.158,-6.443c-0.3,-29.105 -16.453,-56.861 -40.048,-69.411c-17.562,-9.342 -39.835,-12.398 -65.33,-0.207c-7.824,3.742 -14.704,9.264 -20.432,15.91c-7.662,0.004 -15.962,1.336 -24.842,4.549c-23.731,8.585 -47.202,36.138 -46.953,68.762c-6.081,-11.609 -15.249,-20.952 -26.513,-27.017c-2.275,-5.256 -5.587,-10.08 -9.821,-14.155c-9.869,-9.496 -23.612,-13.826 -37.141,-11.704c-34.135,5.354 -67.508,25.42 -94.618,49.062c-6.242,-52.547 -5.218,-100.602 -5.218,-100.602c0.222,-13.576 -5.867,-26.487 -16.484,-34.951c-10.617,-8.464 -24.56,-11.523 -37.745,-8.281c-17.931,4.409 -37.767,16.518 -55.735,32.985c-9.581,8.779 -18.74,18.738 -26.862,28.367c-21.617,-20.865 -48.57,-45.677 -68.231,-59.718c-19.401,-13.857 -37.038,-18.669 -46.501,-18.632c-12.114,0.047 -23.668,5.112 -31.911,13.99c-7.64,8.227 -18.34,31.017 -25.501,60.497c-5.063,20.845 -9.681,45.691 -13.273,67.046c-62.89,-12.986 -91.953,-2.222 -91.953,-2.222c-13.926,4.208 -24.852,15.059 -29.157,28.955c-4.304,13.897 -1.425,29.024 7.684,40.367c22.132,27.561 41.647,61.581 56.559,91.03c-60.037,-0.445 -93.209,14.335 -93.209,14.335c-12.432,5.161 -21.8,15.754 -25.401,28.724c-3.601,12.97 -1.035,26.876 6.958,37.707l45.942,62.259c-43.949,6.928 -66.455,13.901 -66.455,13.901c-12.564,3.814 -22.753,13.066 -27.758,25.205c-5.005,12.139 -4.297,25.883 1.928,37.444c6.677,12.4 21.456,29.584 39.831,46.738c16.717,15.604 36.41,31.789 52.322,44.366c-21.565,48.814 -42.347,116.586 -42.347,116.586c-6.609,22.252 5.299,45.793 27.139,53.656c5.443,1.959 18.581,4.226 36.345,4.366c23.011,0.18 58.226,-1.615 86.479,-3.36c2.575,28.192 6.838,50.278 6.838,50.278c2.612,13.435 11.357,24.875 23.635,30.921c12.279,6.046 26.679,6.002 38.92,-0.118c63.349,-31.675 121.387,-64.816 163.508,-89.987c0.862,26.123 2.638,51.33 5.2,75.75c1.54,14.675 10.368,27.587 23.484,34.347c13.116,6.761 28.755,6.459 41.601,-0.802c-0,0 43.22,-23.971 124.704,-44.576c12.739,-3.221 23.357,-11.994 28.924,-23.896c5.567,-11.902 5.494,-25.675 -0.198,-37.517c-10.604,-22.058 -22.155,-43.359 -34.752,-63.825c16.617,-1.921 34.584,-4.352 52.519,-7.403Z" style="fill:#fff;"/><g><path d="M961.467,714.963c-28.529,-35.661 -127.363,-74.38 -127.363,-74.38c25.473,-42.794 14.02,-116.034 14.02,-116.034c-36.518,7.825 -102.884,39.488 -102.884,39.488c-3.913,-66.514 2.608,-121.943 2.608,-121.943c-66.514,10.434 -126.267,98.816 -126.267,98.816c-26.084,-74.991 -24.128,-194.325 -24.128,-194.325c-39.778,9.781 -88.278,85.343 -88.278,85.343c0,0 -97.264,-101.161 -119.334,-101.075c-16.954,18.259 -35.009,152.723 -35.009,152.723c-79.393,-26.083 -115.137,-15.283 -115.137,-15.283c54.002,67.248 93.74,170.157 93.74,170.157c-93.74,-19.359 -147.742,3.057 -147.742,3.057l90.657,122.854c-88.033,7.336 -133.68,21.193 -133.68,21.193c17.118,31.79 109.308,99.405 109.308,99.405c-24.127,33.909 -56.08,141.505 -56.08,141.505c16.302,5.869 149.983,-4.565 149.983,-4.565c-1.305,41.735 7.825,88.686 7.825,88.686c123.898,-61.95 227.093,-129.605 227.093,-129.605c-2.059,53.624 -0.161,103.29 4.736,149.958c-0,0 46.87,-26.491 135.514,-48.907c-20.834,-43.34 -45.544,-83.578 -75.073,-119.962c0,0 167.75,-7.409 226.337,-44.344c0,0 -15.283,-36.935 -28.02,-56.04l16.558,-129.91l100.616,-16.812Z" style="fill:#f288b7;"/><g><path d="M546.418,718.317l-77.254,-86.068c-5.136,-6.158 -12.84,-14.655 -21.006,-18.601c-7.604,-3.675 -15.731,-4.761 -24.148,-2.626c-8.491,2.154 -16,4.226 -32.845,9.074c-12.695,3.654 -20.452,5.872 -28.204,7.931c-2.572,0.684 -4.742,1.153 -6.832,1.811c-25.725,8.109 -28.877,33.923 -25.283,45.659c1.108,3.617 1.242,4.057 2.258,7.409c5.727,18.903 9.984,33.562 12.761,43.981c0.041,0.156 0.084,0.311 0.129,0.465c13.604,47.348 22.613,79.699 27.016,97.054c4.105,16.177 9.481,40.68 16.15,73.503c6.894,33.933 10.707,51.231 14.95,67.955c2.716,10.706 8.18,17.719 14.177,22.394c9.998,7.792 22.498,9.403 33.134,6.705c-0,-0 61.877,-15.698 61.877,-15.698c9.096,-2.308 17.469,-7.498 22.896,-15.915c4.647,-7.206 8.121,-17.599 4.206,-33.029c-1.902,-7.5 -3.869,-14.986 -6.413,-24.341c9.361,9.855 17.005,18.03 20.548,22.197c0.04,0.046 0.079,0.092 0.119,0.138c22.626,26.212 75.615,19.381 82.481,-22.72c0.032,-0.195 0.062,-0.391 0.089,-0.588c0.856,-6.166 2.61,-15.352 4.851,-25.982c2.004,8.751 3.728,15.881 5.569,23.138c5.397,21.272 22.088,37.415 47.694,30.919c0,-0 66.744,-16.933 66.744,-16.933c12.085,-3.066 35.183,-16.756 27.202,-48.213c-4.194,-16.531 -9.043,-33.675 -18.886,-66.692c-9.565,-32.087 -16.411,-56.234 -20.524,-72.447c-4.464,-17.596 -10.493,-44.041 -18.097,-79.331c-7.787,-36.142 -11.305,-51.536 -15.877,-69.557c-4.736,-18.665 -17.379,-26.471 -32.3,-28.528c-8.249,-1.138 -17.615,0.258 -24.553,1.831c-8.122,1.843 -14.452,3.419 -18.353,4.409c-4.243,1.076 -10.557,2.441 -18.939,4.116c-9.661,1.931 -11.933,2.436 -16.661,3.636c-7.772,1.972 -15.14,7 -20.668,14.573c-4.856,6.652 -8.224,15.458 -9.53,22.552c-12.16,54.37 -21.602,87.519 -28.478,115.819Z" style="fill:#fff;fill-rule:nonzero;"/><path d="M1080.82,884.51c0.04,-0.071 0.08,-0.143 0.12,-0.215c3.503,-6.308 4.347,-11.409 4.487,-14.633c0.547,-12.654 -8.215,-24.541 -20.514,-31.53c-1.779,-1.153 -1.447,-3.78 -1.95,-6.485c-1.063,-5.705 -1.212,-12.419 -0.886,-19.957c1.107,-25.591 8.136,-59.067 15.09,-94.117c0.247,-1.248 0.399,-2.513 0.454,-3.785c0,0 0.088,-2.016 0.088,-2.016c0.372,-8.611 -2.108,-17.565 -8.974,-25.051c-4.87,-5.31 -12.561,-10.68 -25.715,-12.296c0.007,0.001 -69.39,-9.05 -69.39,-9.05c-0.715,-0.093 -1.433,-0.155 -2.153,-0.186l-2.016,-0.088c-4.626,-0.2 -8.812,0.189 -12.603,1.091c-15.992,-6.204 -34.576,-10.402 -53.618,-11.225c-97.008,-4.194 -142.739,78.32 -145.28,137.112c-3.386,78.309 63.039,144.502 144.266,148.014c19.447,0.841 39.973,-1.911 60.38,-9.088c23.574,17.321 50.492,23.577 54.931,23.768c13.335,0.577 26.02,-5.223 36.005,-22.262c0.057,-0.096 0.112,-0.193 0.168,-0.29l27.11,-47.711Zm-164.414,-67.394c-10.084,-0.834 -15.782,-8.749 -15.397,-17.641c0.368,-8.525 4.882,-20.012 15.413,-19.557c0.581,0.025 1.179,0.048 1.764,0.093c-0.689,7.712 -1.181,15.023 -1.49,22.162c-0.223,5.158 -0.311,10.131 -0.29,14.943Z" style="fill:#fff;fill-rule:nonzero;"/><path d="M765.052,869.193c2.887,11.381 -4.745,16.724 -9.118,17.833l-66.743,16.933c-9.71,2.463 -15.268,-4.769 -17.315,-12.835c-3.863,-15.229 -7.2,-29.894 -13.796,-60.638c-6.596,-30.745 -8.503,-39.128 -12.367,-54.357c-1.109,-4.372 -2.381,-6.537 -3.814,-6.494c-1.429,1.325 -25.352,97.603 -29.438,127.046c-3.23,19.807 -28.237,22.74 -38.882,10.408c-12.35,-14.52 -74.633,-77.837 -85.506,-90.967c-0.493,-0.677 -1.382,-1.334 -2.667,-1.971c-0.711,1.625 -0.684,3.945 0.081,6.961c3.748,14.776 6.426,22.241 14.677,51.603c8.252,29.362 12.255,44.087 16.004,58.863c3.144,12.392 -2.764,16.977 -9.018,18.564l-61.877,15.698c-6.198,1.572 -14.292,-0.612 -16.931,-11.014c-4.169,-16.435 -7.907,-33.438 -14.682,-66.785c-6.775,-33.347 -12.248,-58.238 -16.417,-74.673c-4.437,-17.491 -13.511,-50.094 -27.222,-97.81c-2.828,-10.611 -7.159,-25.541 -12.991,-44.792c-1.026,-3.385 -1.161,-3.829 -2.28,-7.481c-1.171,-3.824 0.513,-11.852 8.894,-14.494c1.753,-0.552 3.58,-0.92 5.737,-1.493c7.888,-2.096 15.781,-4.349 28.699,-8.068c16.452,-4.735 23.785,-6.762 32.078,-8.866c8.293,-2.104 15.467,7.779 20.089,13.346l94.198,104.944c7.16,8.615 17.223,13.137 21.029,-5.931c6.95,-34.808 18.162,-69.577 33.946,-140.228c1.071,-6.531 5.407,-16.153 11.822,-17.781c4.373,-1.109 6.477,-1.567 15.412,-3.352c8.935,-1.786 15.665,-3.252 20.188,-4.4c3.77,-0.956 9.886,-2.479 17.735,-4.26c8.835,-2.003 23.757,-4.675 27.09,8.464c4.514,17.792 7.983,32.992 15.671,68.675c7.689,35.683 13.79,62.421 18.304,80.213c4.169,16.435 11.102,40.915 20.798,73.441c9.696,32.526 14.48,49.413 18.612,65.698Z" style="fill:#f288b7;fill-rule:nonzero;"/><path d="M765.052,869.193c2.887,11.381 -4.745,16.724 -9.118,17.833l-66.743,16.933c-9.71,2.463 -15.268,-4.769 -17.315,-12.835c-3.863,-15.229 -7.2,-29.894 -13.796,-60.638c-6.596,-30.745 -8.503,-39.128 -12.367,-54.357c-1.109,-4.372 -2.381,-6.537 -3.814,-6.494c-1.429,1.325 -25.352,97.603 -29.438,127.046c-3.23,19.807 -28.237,22.74 -38.882,10.408c-12.35,-14.52 -74.633,-77.837 -85.506,-90.967c-0.493,-0.677 -1.382,-1.334 -2.667,-1.971c-0.711,1.625 -0.684,3.945 0.081,6.961c3.748,14.776 6.426,22.241 14.677,51.603c8.252,29.362 12.255,44.087 16.004,58.863c3.144,12.392 -2.764,16.977 -9.018,18.564l-61.877,15.698c-6.198,1.572 -14.292,-0.612 -16.931,-11.014c-4.169,-16.435 -7.907,-33.438 -14.682,-66.785c-6.775,-33.347 -12.248,-58.238 -16.417,-74.673c-4.437,-17.491 -13.511,-50.094 -27.222,-97.81c-2.828,-10.611 -7.159,-25.541 -12.991,-44.792c-1.026,-3.385 -1.161,-3.829 -2.28,-7.481c-1.171,-3.824 0.513,-11.852 8.894,-14.494c1.753,-0.552 3.58,-0.92 5.737,-1.493c7.888,-2.096 15.781,-4.349 28.699,-8.068c16.452,-4.735 23.785,-6.762 32.078,-8.866c8.293,-2.104 15.467,7.779 20.089,13.346l94.198,104.944c7.16,8.615 17.223,13.137 21.029,-5.931c6.95,-34.808 18.162,-69.577 33.946,-140.228c1.071,-6.531 5.407,-16.153 11.822,-17.781c4.373,-1.109 6.477,-1.567 15.412,-3.352c8.935,-1.786 15.665,-3.252 20.188,-4.4c3.77,-0.956 9.886,-2.479 17.735,-4.26c8.835,-2.003 23.757,-4.675 27.09,8.464c4.514,17.792 7.983,32.992 15.671,68.675c7.689,35.683 13.79,62.421 18.304,80.213c4.169,16.435 11.102,40.915 20.798,73.441c9.696,32.526 14.48,49.413 18.612,65.698Z" style="fill:#ff9c86;fill-rule:nonzero;"/><path d="M1059.09,867.269c0.877,-1.578 1.332,-2.771 1.367,-3.577c0.174,-4.032 -4.157,-6.644 -8.102,-8.834c-12.607,-7.413 -16.293,-24.944 -15.247,-49.138c1.15,-26.614 8.312,-61.452 15.544,-97.902l0.087,-2.016c0.209,-4.839 -2.387,-10.203 -12.836,-11.463l-69.499,-9.064l-2.016,-0.088c-4.839,-0.209 -8.52,0.844 -11.062,3.562c-15.43,-7.535 -34.997,-12.825 -55.159,-13.696c-79.841,-3.452 -117.132,64.827 -119.224,113.215c-2.806,64.922 53.029,119.046 120.37,121.958c20.565,0.889 42.549,-3.009 63.988,-12.99c19.342,19.824 47.29,27.496 51.323,27.67c5.242,0.227 9.431,-3.228 13.356,-9.926l27.11,-47.711Zm-116.876,-34.544c-9.449,3.631 -18.39,4.861 -26.051,4.53c-26.211,-1.134 -41.1,-21.169 -40.124,-43.75c0.889,-20.565 16.066,-44.553 41.47,-43.454c11.694,0.505 22.337,6.621 26.827,14.895c-1.329,12.062 -2.203,22.932 -2.656,33.416c-0.541,12.501 -0.222,23.826 0.534,34.363Z" style="fill:#f288b7;fill-rule:nonzero;"/><path d="M1059.09,867.269c0.877,-1.578 1.332,-2.771 1.367,-3.577c0.174,-4.032 -4.157,-6.644 -8.102,-8.834c-12.607,-7.413 -16.293,-24.944 -15.247,-49.138c1.15,-26.614 8.312,-61.452 15.544,-97.902l0.087,-2.016c0.209,-4.839 -2.387,-10.203 -12.836,-11.463l-69.499,-9.064l-2.016,-0.088c-4.839,-0.209 -8.52,0.844 -11.062,3.562c-15.43,-7.535 -34.997,-12.825 -55.159,-13.696c-79.841,-3.452 -117.132,64.827 -119.224,113.215c-2.806,64.922 53.029,119.046 120.37,121.958c20.565,0.889 42.549,-3.009 63.988,-12.99c19.342,19.824 47.29,27.496 51.323,27.67c5.242,0.227 9.431,-3.228 13.356,-9.926l27.11,-47.711Zm-116.876,-34.544c-9.449,3.631 -18.39,4.861 -26.051,4.53c-26.211,-1.134 -41.1,-21.169 -40.124,-43.75c0.889,-20.565 16.066,-44.553 41.47,-43.454c11.694,0.505 22.337,6.621 26.827,14.895c-1.329,12.062 -2.203,22.932 -2.656,33.416c-0.541,12.501 -0.222,23.826 0.534,34.363Z" style="fill:#ff9c86;fill-opacity:0.75;fill-rule:nonzero;"/><path d="M1340.83,797.931c-0.321,32.504 -10.157,59.37 -29.506,80.598c-19.965,21.981 -45.972,32.813 -78.021,32.496c-11.695,-0.115 -24.198,-3.125 -37.507,-9.029c-13.309,-5.904 -19.357,-8.85 -18.141,-8.838c-1.975,-0.019 -2.985,2.249 -3.03,6.806c-0.076,7.746 0.188,19.408 0.794,34.984c0.606,15.576 0.736,21.336 0.66,29.082c-0.077,7.746 -6.133,13.15 -11.145,13.1l-42.793,-0.213c-10.48,-0.103 -15.128,-0.459 -18.17,-1.201c-5.146,-1.254 -8.861,-5.581 -8.77,-14.864l2.111,-169.2c0.35,-35.391 -1.149,-60.835 -6.225,-85.189c-1.501,-7.91 3.268,-12.635 5.098,-13.377c5.946,-2.22 13.685,-3.998 30.419,-6.415c16.277,-2.422 28.061,-3.596 35.352,-3.524c5.924,0.058 9.265,4.003 10.023,11.833c0.758,7.831 1.745,11.752 2.96,11.764c-1.519,-0.015 5.015,-4.09 19.602,-12.224c14.588,-8.135 27.805,-12.144 39.652,-12.027c32.961,0.326 59.206,11.446 78.737,33.361c18.932,21.15 28.231,48.509 27.9,82.077Zm-84.523,-1.291c0.12,-12.151 -3.496,-22.82 -10.848,-32.007c-7.956,-9.649 -17.858,-14.531 -29.705,-14.649c-12.151,-0.12 -21.92,4.569 -29.305,14.066c-6.465,8.595 -9.759,19.196 -9.884,31.802c-0.127,12.911 3.108,23.652 9.707,32.224c7.048,9.336 16.875,14.066 29.482,14.191c26.732,0.264 40.25,-14.945 40.553,-45.627Z" style="fill:#f288b7;fill-rule:nonzero;"/><path d="M1340.83,797.931c-0.321,32.504 -10.157,59.37 -29.506,80.598c-19.965,21.981 -45.972,32.813 -78.021,32.496c-11.695,-0.115 -24.198,-3.125 -37.507,-9.029c-13.309,-5.904 -19.357,-8.85 -18.141,-8.838c-1.975,-0.019 -2.985,2.249 -3.03,6.806c-0.076,7.746 0.188,19.408 0.794,34.984c0.606,15.576 0.736,21.336 0.66,29.082c-0.077,7.746 -6.133,13.15 -11.145,13.1l-42.793,-0.213c-10.48,-0.103 -15.128,-0.459 -18.17,-1.201c-5.146,-1.254 -8.861,-5.581 -8.77,-14.864l2.111,-169.2c0.35,-35.391 -1.149,-60.835 -6.225,-85.189c-1.501,-7.91 3.268,-12.635 5.098,-13.377c5.946,-2.22 13.685,-3.998 30.419,-6.415c16.277,-2.422 28.061,-3.596 35.352,-3.524c5.924,0.058 9.265,4.003 10.023,11.833c0.758,7.831 1.745,11.752 2.96,11.764c-1.519,-0.015 5.015,-4.09 19.602,-12.224c14.588,-8.135 27.805,-12.144 39.652,-12.027c32.961,0.326 59.206,11.446 78.737,33.361c18.932,21.15 28.231,48.509 27.9,82.077Zm-84.523,-1.291c0.12,-12.151 -3.496,-22.82 -10.848,-32.007c-7.956,-9.649 -17.858,-14.531 -29.705,-14.649c-12.151,-0.12 -21.92,4.569 -29.305,14.066c-6.465,8.595 -9.759,19.196 -9.884,31.802c-0.127,12.911 3.108,23.652 9.707,32.224c7.048,9.336 16.875,14.066 29.482,14.191c26.732,0.264 40.25,-14.945 40.553,-45.627Z" style="fill:#ff9c86;fill-opacity:0.5;fill-rule:nonzero;"/><path d="M1468.68,747.517c5.017,41.164 9.017,72.734 12.002,94.711c0.423,3.468 1.375,9.397 2.856,17.785c1.389,7.635 1.267,6.872 1.781,11.094c0.894,7.333 -5.476,12.882 -9.172,13.945c-6.638,2.033 -13.496,3.214 -31.138,5.364c-18.094,2.206 -25.125,2.094 -30.283,2.094c-7.55,0 -10.726,-7.115 -11.583,-10.378c-0.055,-0.452 0.193,1.581 -0.542,-4.451c-1.636,-13.419 -3.934,-33.529 -6.894,-60.33c-2.96,-26.8 -5.249,-46.835 -6.866,-60.104c-7.718,-63.328 -11.161,-92.212 -10.331,-86.652c-4.513,-33.267 -8.515,-46.171 -12.727,-70.339c-2.007,-11.519 2.812,-23.048 11.247,-25.884c21.011,-7.063 39.697,-10.821 62.059,-7.974c11.527,1.467 13.755,10.257 15.014,22.478c6.739,65.392 8.476,108.582 14.577,158.641Z" style="fill:#f288b7;fill-rule:nonzero;"/><path d="M1468.68,747.517c5.017,41.164 9.017,72.734 12.002,94.711c0.423,3.468 1.375,9.397 2.856,17.785c1.389,7.635 1.267,6.872 1.781,11.094c0.894,7.333 -5.476,12.882 -9.172,13.945c-6.638,2.033 -13.496,3.214 -31.138,5.364c-18.094,2.206 -25.125,2.094 -30.283,2.094c-7.55,0 -10.726,-7.115 -11.583,-10.378c-0.055,-0.452 0.193,1.581 -0.542,-4.451c-1.636,-13.419 -3.934,-33.529 -6.894,-60.33c-2.96,-26.8 -5.249,-46.835 -6.866,-60.104c-7.718,-63.328 -11.161,-92.212 -10.331,-86.652c-4.513,-33.267 -8.515,-46.171 -12.727,-70.339c-2.007,-11.519 2.812,-23.048 11.247,-25.884c21.011,-7.063 39.697,-10.821 62.059,-7.974c11.527,1.467 13.755,10.257 15.014,22.478c6.739,65.392 8.476,108.582 14.577,158.641Z" style="fill:#ff9c86;fill-opacity:0.25;fill-rule:nonzero;"/><path d="M1750,785.23c-2.522,15.132 -9.186,20.706 -18.917,23.41c-5.801,1.612 -18.155,2.913 -48.021,1.014c-18.005,-0.999 -41.04,-3.478 -74.029,-10.047c0.474,10.089 5.605,18.567 15.394,25.435c7.991,5.644 17.53,9.39 28.617,11.238c13.335,2.223 21.686,5.525 36.648,1.733c29.223,-7.407 33.261,56.022 -14.648,61.727c-12.325,1.468 -26.864,0.642 -42.216,-1.917c-35.659,-5.945 -62.691,-21.154 -81.094,-45.627c-18.952,-24.873 -25.481,-54.989 -19.587,-90.349c5.745,-34.461 20.492,-61.03 44.241,-79.708c24.473,-19.327 53.791,-26.143 87.952,-20.448c28.767,4.795 51.441,19.355 68.021,43.678c16.58,24.323 22.46,50.944 17.639,79.861Zm-68.17,-26.823c1.549,-9.29 -0.386,-18.005 -5.805,-26.146c-5.419,-8.141 -12.698,-12.973 -21.837,-14.497c-9.439,-1.573 -17.893,1.098 -25.359,8.015c-6.918,6.393 -11.201,14.533 -12.849,24.422c-0.675,4.045 1.086,6.418 5.281,7.117c11.087,1.848 28.605,2.998 52.553,3.448c5.069,0.075 7.741,-0.711 8.016,-2.359Z" style="fill:#f288b7;fill-rule:nonzero;"/></g><path d="M1542.3,663.927c-0.574,2.471 -1.857,4.258 -3.646,0.56c-4.037,-8.34 -11.428,-30.618 -5.592,-74.921c0.108,-0.823 1.255,-2.517 2.885,-2.413c8.631,0.551 37.262,4.74 55.624,35.682c0.825,1.39 -0.164,2.871 -1.699,2.364c-13.233,-4.368 -34.265,-19.091 -43.989,-20.5c-3.263,14.87 0.291,42.556 -3.583,59.228Z" style="fill:#f5bde6;stroke:#f5bde6;stroke-width:4.17px;"/><path d="M1764.01,687.804c0.074,2.536 0.977,4.541 3.463,1.271c5.608,-7.377 17.26,-27.752 20.305,-72.334c0.056,-0.828 -0.733,-2.716 -2.351,-2.936c-8.57,-1.168 -37.464,-2.726 -61.584,23.971c-1.084,1.2 -0.408,2.847 1.198,2.654c13.835,-1.664 37.364,-11.935 47.175,-11.392c0.257,15.221 -8.705,41.657 -8.206,58.766Z" style="fill:#f5bde6;stroke:#f5bde6;stroke-width:4.17px;"/><g><path d="M828.216,584.051c-1.063,-0.304 -2.136,-0.597 -3.216,-0.879c-5.534,-1.443 -11.149,-2.502 -16.847,-3.175c-6.312,-0.768 -12.017,0.998 -16.981,5.702c-5.053,4.789 -7.171,10.622 -6.408,17.481c0.526,4.729 2.425,8.772 5.643,12.154c0,-0 0,-0 0,-0c3.267,3.433 7.326,5.563 12.252,6.241c1.09,0.158 2.169,0.327 3.237,0.506c-5.429,6.064 -11.59,11.599 -18.474,16.611c-0.113,0.081 -0.224,0.165 -0.334,0.25c-6.252,4.827 -8.95,11.172 -8.075,19.043c0.437,3.93 1.762,7.104 3.568,9.668c4.732,6.776 11.187,9.667 19.325,8.762c-0,0 -0,0 -0,0c3.723,-0.414 7.03,-1.734 9.943,-3.906c13.417,-9.717 24.958,-21.213 34.617,-34.491c2.183,1.465 4.366,3.029 6.549,4.691c2.434,1.909 5.176,3.155 8.202,3.744c0,0 0,0 0,0c2.332,0.454 4.488,0.51 6.46,0.291c7.397,-0.823 12.472,-4.531 15.573,-10.612c2.264,-4.3 2.996,-8.636 2.521,-12.909c-0.638,-5.74 -3.235,-10.64 -8.095,-14.527c-0.133,-0.106 -0.267,-0.21 -0.403,-0.311c-3.199,-2.383 -6.611,-4.718 -10.239,-7.004l-0.51,-0.319c1.43,-3.7 2.722,-7.452 3.878,-11.257c2.426,-7.984 4.122,-16.085 5.092,-24.302c0.15,-1.186 0.217,-2.831 -0.011,-4.882c-0.598,-5.373 -2.992,-10.007 -7.486,-13.738c-4.492,-3.729 -9.702,-5.327 -15.67,-4.664c-4.534,0.504 -8.562,2.337 -12.021,5.629c-3.461,3.293 -5.527,7.283 -6.232,11.953c-0.009,0.061 -0.018,0.123 -0.027,0.184c-0.875,6.343 -2.189,12.438 -3.95,18.286c-0.588,1.951 -1.214,3.878 -1.881,5.78Zm17.921,-21.73c0.011,-0.108 0.023,-0.21 0.035,-0.307c0.012,-0.098 0.025,-0.19 0.037,-0.277l-0.072,0.584Z" style="fill:#fff;fill-rule:nonzero;"/><path d="M834.567,593.543c-3.942,-1.471 -8.062,-2.771 -12.306,-3.878c-5.063,-1.321 -10.201,-2.288 -15.414,-2.903c-3.044,-0.376 -5.801,0.522 -8.211,2.806c-2.43,2.304 -3.455,5.108 -3.088,8.407c0.254,2.284 1.165,4.239 2.72,5.872c-0,0 -0,0 -0,0c1.565,1.645 3.518,2.649 5.878,2.973c4.388,0.635 8.577,1.421 12.566,2.359c2.744,0.645 5.414,1.38 8.013,2.205c-8.106,12.284 -18.415,22.973 -30.917,32.074c-0.03,0.021 -0.06,0.043 -0.089,0.066c-3.038,2.346 -4.347,5.43 -3.921,9.255c0.208,1.875 0.798,3.405 1.659,4.627c2.264,3.254 5.351,4.652 9.25,4.219c-0,-0 -0,-0 -0,-0c1.774,-0.198 3.348,-0.828 4.729,-1.877c15.203,-10.995 27.831,-24.466 37.858,-40.397c5.461,3.027 10.917,6.62 16.371,10.776c1.084,0.856 2.291,1.409 3.624,1.669c0,-0 0,-0 0,-0c1.152,0.224 2.215,0.265 3.188,0.157c3.378,-0.376 5.725,-2.025 7.134,-4.811c1.191,-2.232 1.624,-4.491 1.376,-6.726c-0.32,-2.874 -1.656,-5.307 -4.089,-7.253c-0.035,-0.028 -0.071,-0.056 -0.107,-0.082c-2.98,-2.22 -6.161,-4.396 -9.542,-6.526c-2.7,-1.702 -5.522,-3.318 -8.464,-4.848c2.843,-6.188 5.254,-12.542 7.235,-19.063c2.242,-7.379 3.809,-14.865 4.702,-22.459c0.076,-0.592 0.086,-1.382 -0.024,-2.372c-0.287,-2.583 -1.471,-4.793 -3.632,-6.587c-2.16,-1.793 -4.67,-2.548 -7.539,-2.229c-2.168,0.241 -4.087,1.131 -5.741,2.705c-1.655,1.574 -2.646,3.48 -2.983,5.712c-0.002,0.017 -0.005,0.033 -0.007,0.049c-0.954,6.913 -2.39,13.556 -4.309,19.93c-1.675,5.563 -3.648,10.946 -5.92,16.15Zm10.296,23.216c0.007,-0.015 0.014,-0.031 0.022,-0.047c0.007,-0.015 0.014,-0.031 0.021,-0.048l-0.043,0.095Zm-17.945,-8.777l0.003,0.001l-0.278,0.399c0.047,-0.08 0.098,-0.158 0.15,-0.232c0.04,-0.058 0.082,-0.114 0.125,-0.168Z" style="fill:#f58dac;fill-rule:nonzero;"/><path d="M996.417,603.858c2.633,0.148 4.951,-0.638 6.955,-2.36c2.026,-1.741 3.149,-4.002 3.306,-6.813c0.149,-2.652 -0.669,-4.993 -2.477,-7.016c-1.808,-2.023 -4.044,-3.096 -6.696,-3.245c0,0 -82.406,-4.614 -82.406,-4.614c-2.632,-0.148 -4.951,0.638 -6.955,2.36c-2.026,1.741 -3.149,4.002 -3.306,6.813c-0.148,2.652 0.669,4.993 2.477,7.016c0,-0 0,-0 0,-0c1.808,2.023 4.044,3.096 6.696,3.245c0,-0 82.406,4.614 82.406,4.614Z" style="fill:#f992a0;fill-rule:nonzero;"/><path d="M1127.26,599.368c1.415,1.192 3.026,2.167 4.837,2.921c3.211,1.338 6.472,1.743 9.782,1.238c3.253,-0.497 6.182,-1.726 8.79,-3.686c2.65,-1.99 4.624,-4.534 5.916,-7.637c1.338,-3.21 1.752,-6.436 1.277,-9.672c-0.466,-3.174 -1.661,-6.089 -3.594,-8.742c-1.973,-2.706 -4.557,-4.736 -7.767,-6.074c-3.103,-1.292 -6.296,-1.708 -9.579,-1.255c-3.231,0.445 -6.177,1.635 -8.836,3.573c-2.706,1.972 -4.736,4.557 -6.073,7.767c-0.449,1.077 -0.792,2.165 -1.03,3.265c-2.076,-2.01 -4.758,-3.963 -8.077,-5.823c-0.018,-0.011 -0.037,-0.021 -0.056,-0.031c-1.599,-0.862 -3.374,-1.773 -5.324,-2.733c-1.971,-0.969 -4.096,-1.929 -6.373,-2.878c-4.639,-1.932 -9.645,-3.8 -15.019,-5.601c-5.355,-1.795 -10.687,-3.411 -15.997,-4.849c-5.349,-1.447 -10.334,-2.596 -14.954,-3.448c-0.008,-0.001 -0.016,-0.003 -0.024,-0.004c-2.576,-0.458 -4.929,-0.031 -7.068,1.229c-2.047,1.207 -3.593,2.979 -4.585,5.361c-1.054,2.529 -1.007,5.016 0.117,7.463c1.086,2.362 2.797,4.008 5.103,4.969c0.757,0.315 1.42,0.48 1.974,0.548c16.824,3.096 30.819,6.952 41.971,11.598c1.791,0.746 3.538,1.543 5.242,2.389c1.736,0.863 3.405,1.721 5.006,2.574c2.167,1.184 3.7,2.257 4.418,3.463c0,0 0,0 0,0c0.413,0.693 0.163,1.522 -0.249,2.512c-0.742,1.781 -2.183,3.93 -4.254,6.494c-7.663,9.483 -16.716,16.472 -27.179,20.941c-10.628,4.539 -23.399,6.886 -38.3,7.115c-0.015,0 -0.03,0.001 -0.045,0.001c-4.538,0.121 -7.587,2.226 -9.235,6.182c-1.148,2.755 -1.049,5.409 0.231,7.963c1.216,2.427 2.979,4.06 5.204,4.987c-0,0 -0,0 -0,0c1.267,0.528 2.488,0.76 3.65,0.748c0.002,0 0.004,0 0.005,0c17.763,-0.204 33.205,-3.183 46.338,-8.871c13.253,-5.739 24.858,-14.547 34.799,-26.449c0.008,-0.009 0.016,-0.019 0.024,-0.029c1.232,-1.504 2.494,-3.198 3.783,-5.082c1.374,-2.008 2.519,-4.112 3.435,-6.311c0.829,-1.991 1.401,-4.033 1.716,-6.126Zm10.492,-10.651c-1.033,-0.43 -1.764,-1.153 -2.186,-2.177c-0.422,-1.024 -0.411,-2.052 0.019,-3.084c0.444,-1.067 1.141,-1.828 2.149,-2.226c1.029,-0.406 2.066,-0.377 3.112,0.059c1.046,0.436 1.798,1.151 2.233,2.168c0,-0 0,-0 0,-0c0.428,0.996 0.378,2.027 -0.066,3.093c-0.436,1.046 -1.151,1.797 -2.168,2.233c-0.996,0.428 -2.027,0.378 -3.093,-0.066Z" style="fill:#fc9793;fill-rule:nonzero;"/><path d="M1207.39,647.609c5.245,-4.191 9.617,-8.751 13.129,-13.669c3.536,-4.953 6.348,-10.63 8.419,-17.041c2.018,-6.247 3.43,-13.461 4.215,-21.647c0.768,-8.005 1.027,-17.3 0.768,-27.887c-0.055,-2.94 -1.168,-5.32 -3.28,-7.167c-2.062,-1.803 -4.515,-2.636 -7.377,-2.445c-2.691,0.18 -4.906,1.303 -6.645,3.371c-1.7,2.022 -2.461,4.349 -2.285,6.98c0.727,10.87 0.553,20.319 -0.544,28.345c-1.062,7.771 -3.044,14.549 -5.988,20.323c-2.908,5.704 -6.932,10.819 -12.056,15.356c-0.041,0.036 -0.081,0.073 -0.121,0.111c-2.504,2.412 -3.567,5.189 -3.362,8.262c0.114,1.705 0.64,3.314 1.597,4.82c0.014,0.022 0.028,0.043 0.042,0.065c2.02,3.043 4.841,4.436 8.457,4.194c0,-0 0,-0 0,-0c1.869,-0.125 3.547,-0.778 5.031,-1.971Zm57.395,-33.245c-0.074,-0.084 -0.208,-0.239 -0.283,-0.356c-0.273,-0.426 -0.501,-0.955 -0.711,-1.576c-0.639,-1.89 -1.035,-4.443 -1.249,-7.649c-0,-0 -3.265,-48.83 -3.265,-48.83c-0.182,-2.728 -1.279,-4.996 -3.275,-6.81c-2.017,-1.833 -4.464,-2.692 -7.366,-2.498c-2.786,0.186 -5.062,1.341 -6.836,3.448c-1.737,2.063 -2.522,4.456 -2.34,7.185c0,-0 3.342,49.998 3.342,49.998c0.522,9.238 2.854,16.042 6.644,20.527c4.247,5.024 9.407,7.263 15.414,6.861c4.674,-0.312 9.703,-2.309 15.006,-6.185c4.906,-3.585 9.704,-8.811 14.339,-15.729c0.013,-0.019 0.026,-0.039 0.038,-0.058c2.358,-3.656 4.701,-7.513 7.032,-11.571c2.373,-4.134 4.546,-8.551 6.517,-13.252c0.529,-1.264 0.766,-2.656 0.664,-4.184c-0.124,-1.861 -0.733,-3.584 -1.845,-5.163c-1.127,-1.601 -2.649,-2.79 -4.593,-3.535c-0.135,-0.051 -0.273,-0.095 -0.413,-0.132c-1.253,-0.327 -2.427,-0.436 -3.517,-0.364c-1.79,0.12 -3.522,0.696 -5.178,1.774c-1.761,1.147 -3.018,2.699 -3.774,4.656c-3.053,7.471 -6.712,14.159 -10.98,20.039c-4.002,5.479 -7.409,9.386 -10.286,11.664c-1.21,0.958 -2.185,1.641 -3.085,1.74Z" style="fill:#ff9c86;fill-rule:nonzero;"/><path d="M834.567,593.543c-3.942,-1.471 -8.062,-2.771 -12.306,-3.878c-5.063,-1.321 -10.201,-2.288 -15.414,-2.903c-3.044,-0.376 -5.801,0.522 -8.211,2.806c-2.43,2.304 -3.455,5.108 -3.088,8.407c0.254,2.284 1.165,4.239 2.72,5.872c-0,0 -0,0 -0,0c1.565,1.645 3.518,2.649 5.878,2.973c4.388,0.635 8.577,1.421 12.566,2.359c2.744,0.645 5.414,1.38 8.013,2.205c-8.106,12.284 -18.415,22.973 -30.917,32.074c-0.03,0.021 -0.06,0.043 -0.089,0.066c-3.038,2.346 -4.347,5.43 -3.921,9.255c0.208,1.875 0.798,3.405 1.659,4.627c2.264,3.254 5.351,4.652 9.25,4.219c-0,-0 -0,-0 -0,-0c1.774,-0.198 3.348,-0.828 4.729,-1.877c15.203,-10.995 27.831,-24.466 37.858,-40.397c5.461,3.027 10.917,6.62 16.371,10.776c1.084,0.856 2.291,1.409 3.624,1.669c0,-0 0,-0 0,-0c1.152,0.224 2.215,0.265 3.188,0.157c3.378,-0.376 5.725,-2.025 7.134,-4.811c1.191,-2.232 1.624,-4.491 1.376,-6.726c-0.32,-2.874 -1.656,-5.307 -4.089,-7.253c-0.035,-0.028 -0.071,-0.056 -0.107,-0.082c-2.98,-2.22 -6.161,-4.396 -9.542,-6.526c-2.7,-1.702 -5.522,-3.318 -8.464,-4.848c2.843,-6.188 5.254,-12.542 7.235,-19.063c2.242,-7.379 3.809,-14.865 4.702,-22.459c0.076,-0.592 0.086,-1.382 -0.024,-2.372c-0.287,-2.583 -1.471,-4.793 -3.632,-6.587c-2.16,-1.793 -4.67,-2.548 -7.539,-2.229c-2.168,0.241 -4.087,1.131 -5.741,2.705c-1.655,1.574 -2.646,3.48 -2.983,5.712c-0.002,0.017 -0.005,0.033 -0.007,0.049c-0.954,6.913 -2.39,13.556 -4.309,19.93c-1.675,5.563 -3.648,10.946 -5.92,16.15Zm10.296,23.216c0.007,-0.015 0.014,-0.031 0.022,-0.047c0.007,-0.015 0.014,-0.031 0.021,-0.048l-0.043,0.095Zm-17.945,-8.777l0.003,0.001l-0.278,0.399c0.047,-0.08 0.098,-0.158 0.15,-0.232c0.04,-0.058 0.082,-0.114 0.125,-0.168Z" style="fill:#e85d9b;fill-opacity:0.75;fill-rule:nonzero;"/><path d="M996.417,603.858c2.633,0.148 4.951,-0.638 6.955,-2.36c2.026,-1.741 3.149,-4.002 3.306,-6.813c0.149,-2.652 -0.669,-4.993 -2.477,-7.016c-1.808,-2.023 -4.044,-3.096 -6.696,-3.245c0,0 -82.406,-4.614 -82.406,-4.614c-2.632,-0.148 -4.951,0.638 -6.955,2.36c-2.026,1.741 -3.149,4.002 -3.306,6.813c-0.148,2.652 0.669,4.993 2.477,7.016c0,-0 0,-0 0,-0c1.808,2.023 4.044,3.096 6.696,3.245c0,-0 82.406,4.614 82.406,4.614Z" style="fill:#e85d9b;fill-opacity:0.75;fill-rule:nonzero;"/><path d="M1127.26,599.368c1.415,1.192 3.026,2.167 4.837,2.921c3.211,1.338 6.472,1.743 9.782,1.238c3.253,-0.497 6.182,-1.726 8.79,-3.686c2.65,-1.99 4.624,-4.534 5.916,-7.637c1.338,-3.21 1.752,-6.436 1.277,-9.672c-0.466,-3.174 -1.661,-6.089 -3.594,-8.742c-1.973,-2.706 -4.557,-4.736 -7.767,-6.074c-3.103,-1.292 -6.296,-1.708 -9.579,-1.255c-3.231,0.445 -6.177,1.635 -8.836,3.573c-2.706,1.972 -4.736,4.557 -6.073,7.767c-0.449,1.077 -0.792,2.165 -1.03,3.265c-2.076,-2.01 -4.758,-3.963 -8.077,-5.823c-0.018,-0.011 -0.037,-0.021 -0.056,-0.031c-1.599,-0.862 -3.374,-1.773 -5.324,-2.733c-1.971,-0.969 -4.096,-1.929 -6.373,-2.878c-4.639,-1.932 -9.645,-3.8 -15.019,-5.601c-5.355,-1.795 -10.687,-3.411 -15.997,-4.849c-5.349,-1.447 -10.334,-2.596 -14.954,-3.448c-0.008,-0.001 -0.016,-0.003 -0.024,-0.004c-2.576,-0.458 -4.929,-0.031 -7.068,1.229c-2.047,1.207 -3.593,2.979 -4.585,5.361c-1.054,2.529 -1.007,5.016 0.117,7.463c1.086,2.362 2.797,4.008 5.103,4.969c0.757,0.315 1.42,0.48 1.974,0.548c16.824,3.096 30.819,6.952 41.971,11.598c1.791,0.746 3.538,1.543 5.242,2.389c1.736,0.863 3.405,1.721 5.006,2.574c2.167,1.184 3.7,2.257 4.418,3.463c0,0 0,0 0,0c0.413,0.693 0.163,1.522 -0.249,2.512c-0.742,1.781 -2.183,3.93 -4.254,6.494c-7.663,9.483 -16.716,16.472 -27.179,20.941c-10.628,4.539 -23.399,6.886 -38.3,7.115c-0.015,0 -0.03,0.001 -0.045,0.001c-4.538,0.121 -7.587,2.226 -9.235,6.182c-1.148,2.755 -1.049,5.409 0.231,7.963c1.216,2.427 2.979,4.06 5.204,4.987c-0,0 -0,0 -0,0c1.267,0.528 2.488,0.76 3.65,0.748c0.002,0 0.004,0 0.005,0c17.763,-0.204 33.205,-3.183 46.338,-8.871c13.253,-5.739 24.858,-14.547 34.799,-26.449c0.008,-0.009 0.016,-0.019 0.024,-0.029c1.232,-1.504 2.494,-3.198 3.783,-5.082c1.374,-2.008 2.519,-4.112 3.435,-6.311c0.829,-1.991 1.401,-4.033 1.716,-6.126Zm10.492,-10.651c-1.033,-0.43 -1.764,-1.153 -2.186,-2.177c-0.422,-1.024 -0.411,-2.052 0.019,-3.084c0.444,-1.067 1.141,-1.828 2.149,-2.226c1.029,-0.406 2.066,-0.377 3.112,0.059c1.046,0.436 1.798,1.151 2.233,2.168c0,-0 0,-0 0,-0c0.428,0.996 0.378,2.027 -0.066,3.093c-0.436,1.046 -1.151,1.797 -2.168,2.233c-0.996,0.428 -2.027,0.378 -3.093,-0.066Z" style="fill:#e85d9b;fill-opacity:0.75;fill-rule:nonzero;"/><path d="M1207.39,647.609c5.245,-4.191 9.617,-8.751 13.129,-13.669c3.536,-4.953 6.348,-10.63 8.419,-17.041c2.018,-6.247 3.43,-13.461 4.215,-21.647c0.768,-8.005 1.027,-17.3 0.768,-27.887c-0.055,-2.94 -1.168,-5.32 -3.28,-7.167c-2.062,-1.803 -4.515,-2.636 -7.377,-2.445c-2.691,0.18 -4.906,1.303 -6.645,3.371c-1.7,2.022 -2.461,4.349 -2.285,6.98c0.727,10.87 0.553,20.319 -0.544,28.345c-1.062,7.771 -3.044,14.549 -5.988,20.323c-2.908,5.704 -6.932,10.819 -12.056,15.356c-0.041,0.036 -0.081,0.073 -0.121,0.111c-2.504,2.412 -3.567,5.189 -3.362,8.262c0.114,1.705 0.64,3.314 1.597,4.82c0.014,0.022 0.028,0.043 0.042,0.065c2.02,3.043 4.841,4.436 8.457,4.194c0,-0 0,-0 0,-0c1.869,-0.125 3.547,-0.778 5.031,-1.971Zm57.395,-33.245c-0.074,-0.084 -0.208,-0.239 -0.283,-0.356c-0.273,-0.426 -0.501,-0.955 -0.711,-1.576c-0.639,-1.89 -1.035,-4.443 -1.249,-7.649c-0,-0 -3.265,-48.83 -3.265,-48.83c-0.182,-2.728 -1.279,-4.996 -3.275,-6.81c-2.017,-1.833 -4.464,-2.692 -7.366,-2.498c-2.786,0.186 -5.062,1.341 -6.836,3.448c-1.737,2.063 -2.522,4.456 -2.34,7.185c0,-0 3.342,49.998 3.342,49.998c0.522,9.238 2.854,16.042 6.644,20.527c4.247,5.024 9.407,7.263 15.414,6.861c4.674,-0.312 9.703,-2.309 15.006,-6.185c4.906,-3.585 9.704,-8.811 14.339,-15.729c0.013,-0.019 0.026,-0.039 0.038,-0.058c2.358,-3.656 4.701,-7.513 7.032,-11.571c2.373,-4.134 4.546,-8.551 6.517,-13.252c0.529,-1.264 0.766,-2.656 0.664,-4.184c-0.124,-1.861 -0.733,-3.584 -1.845,-5.163c-1.127,-1.601 -2.649,-2.79 -4.593,-3.535c-0.135,-0.051 -0.273,-0.095 -0.413,-0.132c-1.253,-0.327 -2.427,-0.436 -3.517,-0.364c-1.79,0.12 -3.522,0.696 -5.178,1.774c-1.761,1.147 -3.018,2.699 -3.774,4.656c-3.053,7.471 -6.712,14.159 -10.98,20.039c-4.002,5.479 -7.409,9.386 -10.286,11.664c-1.21,0.958 -2.185,1.641 -3.085,1.74Z" style="fill:#e85d9b;fill-opacity:0.75;fill-rule:nonzero;"/></g><g id="Layer1"><path d="M1551.06,485.944c-0.961,0.119 -2.329,0.296 -3.102,0.569c-2.34,0.824 -4.561,1.999 -6.653,3.328c-8.066,5.127 -13.442,15.9 -13.097,25.461c0.322,8.928 6.352,12.372 12.971,17.171c2.953,2.141 18.104,10.273 21.435,11.745c12.825,5.669 22.446,7.948 28.885,5.402c16.325,-6.455 23.269,-23.953 12.816,-37.851c-4.031,-5.359 -7.919,-7.64 -14.91,-12.234c-7.963,-5.233 -16.507,-10.063 -25.81,-12.231c-4.219,-0.983 -8.204,-1.898 -12.535,-1.36Z" style="fill:#ff869e;"/><clipPath id="_clip1"><path d="M1551.06,485.944c-0.961,0.119 -2.329,0.296 -3.102,0.569c-2.34,0.824 -4.561,1.999 -6.653,3.328c-8.066,5.127 -13.442,15.9 -13.097,25.461c0.322,8.928 6.352,12.372 12.971,17.171c2.953,2.141 18.104,10.273 21.435,11.745c12.825,5.669 22.446,7.948 28.885,5.402c16.325,-6.455 23.269,-23.953 12.816,-37.851c-4.031,-5.359 -7.919,-7.64 -14.91,-12.234c-7.963,-5.233 -16.507,-10.063 -25.81,-12.231c-4.219,-0.983 -8.204,-1.898 -12.535,-1.36Z"/></clipPath><g clip-path="url(#_clip1)"><path d="M1555.37,486.645c7.591,4.032 8.989,16.275 3.121,27.323c-5.869,11.047 -16.796,16.742 -24.387,12.71c-7.591,-4.032 -8.989,-16.275 -3.12,-27.323c5.868,-11.047 16.795,-16.742 24.386,-12.71Z" style="fill:#c65e66;"/></g><path d="M926.815,969.564c-1.021,0.774 -2.471,1.885 -3.176,2.709c-2.132,2.497 -3.897,5.317 -5.41,8.227c-5.836,11.225 -4.844,27.13 1.894,37.85c6.293,10.012 15.485,9.955 26.25,11.059c4.802,0.493 27.551,-0.247 32.343,-0.771c18.45,-2.017 30.981,-5.792 36.665,-12.98c14.414,-18.225 10.757,-42.874 -10.437,-51.854c-8.173,-3.463 -14.14,-3.496 -25.195,-4.118c-12.592,-0.709 -25.582,-0.572 -37.675,3.118c-5.484,1.673 -10.655,3.27 -15.259,6.76Z" style="fill:#b4ddff;"/><clipPath id="_clip2"><path d="M926.815,969.564c-1.021,0.774 -2.471,1.885 -3.176,2.709c-2.132,2.497 -3.897,5.317 -5.41,8.227c-5.836,11.225 -4.844,27.13 1.894,37.85c6.293,10.012 15.485,9.955 26.25,11.059c4.802,0.493 27.551,-0.247 32.343,-0.771c18.45,-2.017 30.981,-5.792 36.665,-12.98c14.414,-18.225 10.757,-42.874 -10.437,-51.854c-8.173,-3.463 -14.14,-3.496 -25.195,-4.118c-12.592,-0.709 -25.582,-0.572 -37.675,3.118c-5.484,1.673 -10.655,3.27 -15.259,6.76Z"/></clipPath><g clip-path="url(#_clip2)"><path d="M932.219,967.505c11.369,-0.418 21.094,12.675 21.704,29.222c0.609,16.547 -8.127,30.32 -19.496,30.739c-11.37,0.418 -21.095,-12.675 -21.704,-29.222c-0.609,-16.546 8.126,-30.32 19.496,-30.739Z" style="fill:#91beff;"/></g><path d="M703.903,497.942c-0.314,0.917 -0.753,2.224 -0.847,3.038c-0.282,2.465 -0.198,4.977 0.082,7.439c1.08,9.497 8.415,19.044 17.162,22.918c8.169,3.617 13.904,-0.298 21.116,-4.149c3.217,-1.718 17.159,-11.783 19.941,-14.134c10.71,-9.051 16.969,-16.705 17.497,-23.608c1.34,-17.503 -11.355,-31.405 -28.425,-28.088c-6.583,1.28 -10.336,3.778 -17.526,8.053c-8.19,4.871 -16.271,10.439 -22.292,17.855c-2.731,3.363 -5.296,6.546 -6.708,10.676Z" style="fill:#cacff5;"/><clipPath id="_clip3"><path d="M703.903,497.942c-0.314,0.917 -0.753,2.224 -0.847,3.038c-0.282,2.465 -0.198,4.977 0.082,7.439c1.08,9.497 8.415,19.044 17.162,22.918c8.169,3.617 13.904,-0.298 21.116,-4.149c3.217,-1.718 17.159,-11.783 19.941,-14.134c10.71,-9.051 16.969,-16.705 17.497,-23.608c1.34,-17.503 -11.355,-31.405 -28.425,-28.088c-6.583,1.28 -10.336,3.778 -17.526,8.053c-8.19,4.871 -16.271,10.439 -22.292,17.855c-2.731,3.363 -5.296,6.546 -6.708,10.676Z"/></clipPath><g clip-path="url(#_clip3)"><path d="M706.42,494.372c6.947,-5.061 18.568,-0.961 25.933,9.15c7.365,10.111 7.705,22.429 0.757,27.49c-6.948,5.061 -18.568,0.961 -25.933,-9.151c-7.365,-10.111 -7.705,-22.429 -0.757,-27.489Z" style="fill:#a5adea;"/></g><path d="M937.007,508.138c-14.572,-4.996 -69.701,-16.64 -78.001,-51.216c-3.648,-15.195 6.731,-28.944 17.38,-32.796c20.426,-7.39 33.101,10.387 33.101,10.387c0,0 2.013,-25.75 16.166,-32.518c25.259,-12.079 42.491,9.108 42.713,30.572c0.355,34.45 -28.799,80.802 -31.359,75.571Z" style="fill:#c6a0f6;"/><path d="M935.716,509.901c0.582,0.6 1.356,0.825 2.299,0.701c0.466,-0.062 1.03,-0.251 1.651,-0.64c0.848,-0.53 1.951,-1.544 3.206,-3.017c8.926,-10.483 27.866,-46.323 27.577,-74.399c-0.141,-13.65 -6.869,-27.142 -17.934,-33.028c-7.465,-3.971 -16.925,-4.584 -27.761,0.598c-6.116,2.925 -10.214,9.065 -12.833,15.46c-2.13,5.198 -3.294,10.527 -3.903,14.173c-5.223,-5.093 -16.65,-13.258 -32.341,-7.582c-11.445,4.14 -22.617,18.909 -18.697,35.242c3.45,14.371 14.599,25.002 27.809,32.831c18.785,11.134 41.679,16.6 50.928,19.662l-0.001,-0.001Zm3.132,-2.737c0.011,0.019 0.021,0.038 0.03,0.058l-0.03,-0.058Zm-1.133,-0.985l-0.032,-0.012c-8.676,-2.974 -31.849,-8.297 -50.77,-19.511c-12.215,-7.24 -22.691,-16.931 -25.881,-30.22c-3.375,-14.058 6.211,-26.787 16.062,-30.351c18.944,-6.853 30.697,9.638 30.697,9.638c0.509,0.713 1.409,1.032 2.253,0.798c0.845,-0.235 1.452,-0.972 1.52,-1.845c0,-0 0.701,-8.95 4.212,-17.521c2.23,-5.443 5.57,-10.791 10.776,-13.28c9.372,-4.482 17.55,-4.113 24.006,-0.679c9.814,5.221 15.6,17.286 15.724,29.393c0.279,27.043 -17.984,61.557 -26.583,71.655c-0.672,0.79 -1.503,1.529 -1.984,1.935Z" style="fill:#c6a0f6;"/><path d="M1565.72,1051.16c16.186,-3.552 76.531,-9.237 89.641,-45.171c5.761,-15.792 -3.645,-31.758 -14.553,-37.181c-20.924,-10.402 -36.65,7.042 -36.65,7.042c-0,0 1.007,-27.766 -13.29,-36.734c-25.514,-16.006 -46.528,4.523 -49.396,27.435c-4.603,36.774 20.871,89.885 24.248,84.609Z" style="fill:#ff869e;"/><path d="M1566.77,1053.07c10.201,-2.138 35.403,-5.16 56.891,-14.776c15.038,-6.729 28.228,-16.692 33.662,-31.588c6.162,-16.891 -3.916,-33.961 -15.583,-39.761c-16.208,-8.057 -29.494,-0.466 -35.565,4.307c-0.189,-3.964 -0.765,-9.939 -2.442,-15.893c-2.005,-7.118 -5.607,-14.15 -11.753,-18.005c-10.892,-6.834 -21.029,-7.342 -29.453,-4.03c-12.497,4.914 -21.3,18.459 -23.117,32.972c-3.747,29.931 12.08,70.503 20.325,82.785c1.175,1.752 2.243,2.977 3.087,3.633c1.025,0.797 1.977,0.972 2.69,0.869c0.454,-0.065 0.88,-0.226 1.259,-0.513l-0.001,0Zm-2.765,-3.082l-0.035,0.052c0.011,-0.017 0.023,-0.035 0.035,-0.052Zm1.158,-0.83c-0.469,-0.492 -1.315,-1.425 -1.969,-2.399c-7.962,-11.861 -23.268,-51.04 -19.65,-79.946c1.625,-12.981 9.329,-25.216 20.508,-29.611c7.361,-2.895 16.196,-2.29 25.714,3.681c5.291,3.32 8.23,9.478 9.956,15.605c2.708,9.615 2.359,19.29 2.359,19.29c-0.032,0.875 0.488,1.677 1.3,2.006c0.812,0.329 1.743,0.115 2.329,-0.536c0,0 14.664,-16.271 34.175,-6.572c10.15,5.046 18.884,19.908 13.524,34.602c-5.053,13.851 -17.467,22.956 -31.449,29.213c-21.609,9.67 -47.04,12.521 -56.682,14.638c-0.039,0.008 -0.077,0.018 -0.115,0.029Z" style="fill:#ff869e;"/><path d="M1247.88,393.849l2.468,47.096l45.554,12.207l-44.028,16.901l2.468,47.096l-29.68,-36.651l-44.028,16.901l25.685,-39.553l-29.679,-36.651l45.554,12.207l25.686,-39.553Z" style="fill:#79ff9a;"/><path d="M1247.88,393.849l2.468,47.096l45.554,12.207l-44.028,16.901l2.468,47.096l-29.68,-36.651l-44.028,16.901l25.685,-39.553l-29.679,-36.651l45.554,12.207l25.686,-39.553Z" style="fill:#f5bde6;"/><path d="M1340.7,443.637l15.109,23.265l26.796,-7.18l-17.458,21.559l15.108,23.266l-25.898,-9.942l-17.458,21.559l1.452,-27.703l-25.898,-9.941l26.795,-7.18l1.452,-27.703Z" style="fill:#ff869e;"/><path d="M1841.29,853.453l-11.059,22.188l17.685,17.374l-24.519,-3.661l-11.058,22.188l-4.096,-24.45l-24.519,-3.661l21.988,-11.45l-4.095,-24.451l17.685,17.374l21.988,-11.451Z" style="fill:#b4ddff;"/><path d="M1326.13,953.933c-49.391,20.696 4.303,39.714 60.926,31.661c51.019,-7.257 98.832,-44.253 59.602,-46.686c54.554,-3.954 49.749,65.664 -56.757,79.603c-130.725,17.109 -120.322,-51.478 -63.771,-64.578Z" style="fill:#f5a97f;stroke:#f5a97f;stroke-width:4.17px;stroke-linejoin:round;"/><circle cx="844.531" cy="988.705" r="12.767" style="fill:#f5bde6;"/><circle cx="1232.25" cy="961.897" r="12.767" style="fill:#c6a0f6;"/><circle cx="1729.14" cy="945.595" r="12.767" style="fill:#f5bde6;"/><circle cx="1834.13" cy="781.267" r="12.767" style="fill:#c6a0f6;"/><circle cx="1666.01" cy="571.12" r="12.767" style="fill:#cacff5;"/><circle cx="1449.41" cy="520.622" r="12.767" style="fill:#b4ddff;"/><path d="M1026.96,495.149c-0.801,1.983 -0.487,3.217 0.79,4.275c21.377,17.708 62.607,-8.999 61.949,-41.246c-0.017,-0.854 0.27,-2.544 -2.797,-2.213c-14.818,1.603 -44.099,-0.061 -59.942,39.184Z" style="fill:#b4ddff;"/></g></g></g></svg>